<svg id="Camada_1" data-name="Camada 1" xmlns="http://www.w3.org/2000/svg" xmlns:xlink="http://www.w3.org/1999/xlink" viewBox="0 0 662.99 1193.07"><defs><style>.cls-1{fill:#161616;}.cls-2,.cls-25,.cls-28,.cls-3,.cls-31{stroke:#070101;}.cls-2,.cls-20,.cls-23,.cls-24,.cls-25,.cls-28,.cls-3,.cls-31,.cls-33,.cls-34,.cls-35,.cls-37,.cls-39,.cls-40{stroke-miterlimit:10;}.cls-2,.cls-21{fill:url(#Gradiente_sem_nome_60);}.cls-29,.cls-3{fill:url(#Gradiente_sem_nome_6);}.cls-4{fill:url(#Gradiente_sem_nome_13);}.cls-5{fill:url(#Gradiente_sem_nome_13-2);}.cls-6{clip-path:url(#clip-path);}.cls-35,.cls-7{fill:#ccc;}.cls-8{fill:url(#Gradiente_sem_nome_74);}.cls-9{fill:#282828;}.cls-10,.cls-31{fill:#fff;}.cls-11{fill:#ddd;}.cls-12{fill:#1a1a1a;}.cls-13{fill:#1f1f1f;}.cls-14{fill:#242424;}.cls-15{clip-path:url(#clip-path-2);}.cls-16{fill:url(#Gradiente_sem_nome_73);}.cls-17{fill:url(#Gradiente_sem_nome_43);}.cls-18{fill:#bcb01d;}.cls-19{fill:url(#Gradiente_sem_nome_74-2);}.cls-20{stroke:#191919;fill:url(#Gradiente_sem_nome_60-2);}.cls-22{clip-path:url(#clip-path-3);}.cls-23{stroke:#c1c1c1;}.cls-23,.cls-24,.cls-33,.cls-34,.cls-35,.cls-37{stroke-width:3px;}.cls-24,.cls-39{stroke:#fff;}.cls-25,.cls-37,.cls-39,.cls-40{fill:none;}.cls-26{fill:url(#Gradiente_sem_nome_68);}.cls-27{fill:url(#Gradiente_sem_nome_68-2);}.cls-28{fill:url(#Gradiente_sem_nome_6-2);}.cls-30{clip-path:url(#clip-path-4);}.cls-32{fill:#f4e90c;}.cls-33,.cls-34,.cls-35{stroke:#000;}.cls-33{fill:url(#Gradiente_sem_nome_21);}.cls-34{fill:url(#Gradiente_sem_nome_28);}.cls-36{fill:#bcaf0f;}.cls-37{stroke:#282828;}.cls-38{fill:#c00;}.cls-40{stroke:red;stroke-width:2px;}.cls-41{fill:url(#Gradiente_sem_nome_47);}.cls-42{fill:url(#Gradiente_sem_nome_47-2);}.cls-43{clip-path:url(#clip-path-5);}.cls-44{fill:red;}.cls-45{clip-path:url(#clip-path-6);}.cls-46{fill:#ffdac9;}</style><linearGradient id="Gradiente_sem_nome_60" x1="379.5" y1="613.34" x2="379.5" y2="375.47" gradientTransform="translate(63.37 -50.18) rotate(8.57)" gradientUnits="userSpaceOnUse"><stop offset="0.18" stop-color="#c00"/><stop offset="0.21" stop-color="#ba0202"/><stop offset="0.29" stop-color="#8a0909"/><stop offset="0.37" stop-color="#610f0f"/><stop offset="0.46" stop-color="#421313"/><stop offset="0.53" stop-color="#2b1616"/><stop offset="0.61" stop-color="#1e1818"/><stop offset="0.67" stop-color="#191919"/></linearGradient><linearGradient id="Gradiente_sem_nome_6" x1="339.03" y1="383.91" x2="339.03" y2="457.01" gradientUnits="userSpaceOnUse"><stop offset="0.35" stop-color="#c00"/><stop offset="0.48" stop-color="#c90000"/><stop offset="0.58" stop-color="#c00202"/><stop offset="0.67" stop-color="#af0404"/><stop offset="0.75" stop-color="#990707"/><stop offset="0.83" stop-color="#7c0b0b"/><stop offset="0.9" stop-color="#581010"/><stop offset="0.97" stop-color="#2e1616"/><stop offset="1" stop-color="#191919"/></linearGradient><linearGradient id="Gradiente_sem_nome_13" x1="247.43" y1="240.44" x2="247.43" y2="229.18" gradientTransform="translate(-77.24 14.74) rotate(-6.97)" gradientUnits="userSpaceOnUse"><stop offset="0" stop-color="#c00"/><stop offset="0.75" stop-color="#471313"/><stop offset="1" stop-color="#191919"/></linearGradient><linearGradient id="Gradiente_sem_nome_13-2" x1="14477.78" y1="241.18" x2="14477.78" y2="227.6" gradientTransform="matrix(-0.99, 0.12, 0.12, 0.99, 14612.93, -1780.75)" xlink:href="#Gradiente_sem_nome_13"/><clipPath id="clip-path"><polygon class="cls-1" points="135.55 732.34 155.96 757.85 193.46 768.19 385.05 920.33 416.51 989.79 442.73 1028.6 518.03 932.61 478.29 857.49 446.91 847.8 299.5 646.75 214.08 631.98 135.55 732.34"/></clipPath><linearGradient id="Gradiente_sem_nome_74" x1="244.72" y1="275.95" x2="244.72" y2="428.25" gradientTransform="translate(-113.4 135.56) rotate(-23.58)" gradientUnits="userSpaceOnUse"><stop offset="0.3" stop-color="#c00"/><stop offset="0.34" stop-color="#c50101"/><stop offset="0.4" stop-color="#b10404"/><stop offset="0.47" stop-color="#910808"/><stop offset="0.55" stop-color="#650e0e"/><stop offset="0.63" stop-color="#2c1616"/><stop offset="0.66" stop-color="#191919"/></linearGradient><clipPath id="clip-path-2"><polygon class="cls-1" points="372.27 645.18 377.8 766.49 270.42 950.97 267.65 974.5 225.2 1066.16 147.45 1052.22 117.38 1024.18 169.61 932.73 227.5 672.69 280.15 611.94 372.27 645.18"/></clipPath><linearGradient id="Gradiente_sem_nome_73" x1="173.69" y1="1078.41" x2="264.45" y2="833.81" gradientTransform="translate(-343.58 153.12) rotate(-22.14)" gradientUnits="userSpaceOnUse"><stop offset="0" stop-color="#282828"/><stop offset="0.26" stop-color="#848484"/><stop offset="0.53" stop-color="#dcdcdc"/><stop offset="0.65" stop-color="#fff"/></linearGradient><linearGradient id="Gradiente_sem_nome_43" x1="316.74" y1="557.59" x2="316.74" y2="382.05" gradientTransform="translate(-83.93 56.09) rotate(-8.72)" gradientUnits="userSpaceOnUse"><stop offset="0.28" stop-color="#ccc"/><stop offset="0.37" stop-color="#c8c8c8"/><stop offset="0.46" stop-color="#bcbcbc"/><stop offset="0.55" stop-color="#a8a8a8"/><stop offset="0.64" stop-color="#8c8c8c"/><stop offset="0.72" stop-color="#686868"/><stop offset="0.81" stop-color="#3d3d3d"/><stop offset="0.88" stop-color="#161616"/></linearGradient><linearGradient id="Gradiente_sem_nome_74-2" x1="445.25" y1="287.35" x2="445.25" y2="439.64" gradientTransform="translate(-21.11 -30.15) rotate(1.33)" xlink:href="#Gradiente_sem_nome_74"/><linearGradient id="Gradiente_sem_nome_60-2" x1="238.35" y1="609.76" x2="238.35" y2="374.09" gradientTransform="matrix(1, 0.03, -0.03, 1, 12.93, -7.79)" xlink:href="#Gradiente_sem_nome_60"/><clipPath id="clip-path-3"><polygon class="cls-2" points="361.05 385.18 323.23 368.72 316.17 386.55 320.73 416.77 360.37 450.55 375.24 521.84 346.66 612.81 425.49 525.62 387.17 419.44 357.66 404.44 361.05 385.18"/></clipPath><linearGradient id="Gradiente_sem_nome_68" x1="216.29" y1="426.96" x2="216.29" y2="310.84" gradientUnits="userSpaceOnUse"><stop offset="0" stop-color="#282828"/><stop offset="0.21" stop-color="#848484"/><stop offset="0.42" stop-color="#dcdcdc"/><stop offset="0.52" stop-color="#fff"/><stop offset="0.6" stop-color="#f9f9f9"/><stop offset="0.71" stop-color="#e8e8e8"/><stop offset="0.83" stop-color="#cdcdcd"/><stop offset="0.83" stop-color="#ccc"/></linearGradient><linearGradient id="Gradiente_sem_nome_68-2" x1="326.91" y1="431.17" x2="326.91" y2="311.13" xlink:href="#Gradiente_sem_nome_68"/><linearGradient id="Gradiente_sem_nome_6-2" x1="202.54" y1="384.16" x2="202.54" y2="457.88" xlink:href="#Gradiente_sem_nome_6"/><clipPath id="clip-path-4"><polygon class="cls-3" points="310.45 418.53 288.09 393.19 359 398.77 389.96 383.91 386.14 400.51 387.98 412.57 317.42 457 310.45 418.53"/></clipPath><linearGradient id="Gradiente_sem_nome_21" x1="326.87" y1="241.22" x2="326.87" y2="193.77" gradientTransform="translate(-60.18 35.89) rotate(-5.96)" gradientUnits="userSpaceOnUse"><stop offset="0" stop-color="#ddd"/><stop offset="0.68" stop-color="#585858"/><stop offset="1" stop-color="#191919"/></linearGradient><linearGradient id="Gradiente_sem_nome_28" x1="318.88" y1="283.07" x2="318.88" y2="191.97" gradientTransform="translate(-60.18 35.89) rotate(-5.96)" gradientUnits="userSpaceOnUse"><stop offset="0.26" stop-color="#ccc"/><stop offset="0.33" stop-color="#c9c9c9"/><stop offset="0.38" stop-color="silver"/><stop offset="0.43" stop-color="#afafaf"/><stop offset="0.48" stop-color="#999"/><stop offset="0.52" stop-color="#7c7c7c"/><stop offset="0.56" stop-color="#585858"/><stop offset="0.6" stop-color="#2e2e2e"/><stop offset="0.61" stop-color="#191919"/></linearGradient><linearGradient id="Gradiente_sem_nome_47" x1="227.56" y1="315.62" x2="227.56" y2="146.47" gradientTransform="translate(-77.24 14.74) rotate(-6.97)" gradientUnits="userSpaceOnUse"><stop offset="0.01" stop-color="red"/><stop offset="0.18" stop-color="#e30000"/><stop offset="0.34" stop-color="#d20000"/><stop offset="0.45" stop-color="#c00"/><stop offset="0.57" stop-color="#c90101"/><stop offset="0.65" stop-color="#c00303"/><stop offset="0.73" stop-color="#b00707"/><stop offset="0.8" stop-color="#990c0c"/><stop offset="0.87" stop-color="#7c1414"/><stop offset="0.93" stop-color="#581c1c"/><stop offset="0.99" stop-color="#2e2727"/><stop offset="1" stop-color="#282828"/></linearGradient><linearGradient id="Gradiente_sem_nome_47-2" x1="351.84" y1="312.07" x2="351.84" y2="139" xlink:href="#Gradiente_sem_nome_47"/><clipPath id="clip-path-5"><path class="cls-4" d="M216.8,220.92l-7.19-8.4-32.7,2a26.86,26.86,0,0,0,8.48,7.13C192,224.94,216.8,220.92,216.8,220.92Z"/></clipPath><clipPath id="clip-path-6"><path class="cls-5" d="M249.4,217.54l6.47-10.94L291.63,199s-3.4,8.17-7.66,11.76C278.36,215.44,249.4,217.54,249.4,217.54Z"/></clipPath></defs><polygon class="cls-1" points="135.55 732.34 155.96 757.85 193.46 768.19 385.05 920.33 416.51 989.79 442.73 1028.6 518.03 932.61 478.29 857.49 446.91 847.8 299.5 646.75 214.08 631.98 135.55 732.34"/><g class="cls-6"><rect class="cls-7" x="283.73" y="811.34" width="169.62" height="65.89" transform="translate(-523.2 613.13) rotate(-51.89)"/><polygon class="cls-7" points="457.93 806.61 353.24 940.07 486.01 1193.07 662.99 967.48 457.93 806.61"/></g><polygon points="433.77 1050.59 486.92 982.84 469.64 912.9 410.61 1005.06 433.77 1050.59"/><polygon points="499.29 966.01 471.7 914.51 498.27 880.63 509.73 906.2 530.7 925.97 499.29 966.01"/><path class="cls-8" d="M208,377.65C190.09,342.11,194,304,216.79,292.59s63.38,2,77,54L311.5,356l-9.19,20.91,17.38,12-6.55,27.76-31.67,4.66-32.92,18.83-24.29-9.71-.06-25.9-14.43,1Z"/><path class="cls-1" d="M211.67,267.43c-6.8,2.48-30.42,11.34-40.87-1.95,0,0-7.52,18.71-1.68,26.47,0,0-9.71,4.16-16.52-4-3.64,19.4,13.84,31.69,29.68,38.08.26.88.55,1.75.86,2.62.21.56.43,1.1.65,1.65-3.51,3.17-9.71,7.65-16.18,6.91,0,0,16,29.45,42.22,19.24a47.75,47.75,0,1,0,1.84-89Z"/><path class="cls-9" d="M183.58,459.46c1.27-.26,2.51-.49,3.74-.72l-6.94-5.83s19.65-1.86,23.52,3.31c0,0-.45-7.44-4.43-10.76,0,0,21.09-.29,29.63,12.93l.53.16-4-16s27.62,15.1,27.81,39c.55,1.46,7.46,4.47,7.46,4.47L266.33,514l-57,27.33L79.5,559,63.32,512.36,100.69,502C126.94,483.57,152.44,464,183.58,459.46Z"/><polygon class="cls-10" points="63.32 512.36 37.58 551.1 51.73 585.39 82.86 582.68 102.41 543.01 63.32 512.36"/><polygon class="cls-10" points="60.03 521.45 41.31 522.38 27.14 534.58 6.89 534.78 4.33 549.37 22.59 553.47 31.07 550.58 0 602.89 9.47 608.89 5.93 615.73 23.62 625.7 54.47 582.91 60.03 521.45"/><polygon class="cls-11" points="35.76 550.47 45.47 557.11 56.32 552 66.91 550.21 65.12 558.77 79.81 571.02 83.89 568.6 88.23 564.64 85.64 574.3 73.55 584.3 53.12 584.42 47.76 588.64 47.51 578.68 40.87 570.77 26.06 568.6 43.55 564.64 53.12 555.57 44.7 558.51 35.76 550.47"/><polygon class="cls-10" points="52.38 571.91 45.77 607.8 66.88 609.27 69.95 601.9 91.67 594.22 81.21 574.34 70.21 577.38 70.36 572.89 52.38 571.91"/><path class="cls-1" d="M225.51,492.92c-.16.15-68.26,16.28-77.9-28.87,0,0-11.93,42.16,13.2,68.49,0,0-25.51,3.68-27.92-16.95,0,0-13.53,68.46,32.1,79.44,0,0,38.92,12.29,60.1-40.64C239.51,518.37,225.51,492.92,225.51,492.92Z"/><path class="cls-1" d="M127.92,728.5c25.53,39.87,320.45-65,238.7-192.66-35.07-54.76-98.06-66.15-141.89-38.07C96.87,579.65,92.54,673.26,127.92,728.5Z"/><path class="cls-12" d="M133.17,702c21.52,34,283.36-64,214.46-172.92C318.08,482.36,263,474,223.74,499.37,109.37,573.48,103.36,654.88,133.17,702Z"/><path class="cls-13" d="M138.42,675.51c17.5,28.17,246.27-63,190.23-153.18-24-38.69-71.3-44.11-105.89-21.37C121.87,567.31,114.18,636.49,138.42,675.51Z"/><path class="cls-14" d="M143.67,649c13.49,22.32,209.18-62,166-133.44-18.52-30.65-57.93-33.1-87.9-13C134.37,561.14,125,618.1,143.67,649Z"/><path class="cls-9" d="M148.92,622.53c9.47,16.47,172.09-61,141.77-113.7-13-22.62-44.55-22.09-69.9-4.67C146.86,555,135.81,599.71,148.92,622.53Z"/><path class="cls-1" d="M284.45,426.17c63.13-8.55,195.56-216.37-6.91-179.52C102,278.6,221.33,434.72,284.45,426.17Z"/><polygon class="cls-1" points="372.27 645.18 377.8 766.49 270.42 950.97 267.65 974.5 225.2 1066.16 147.45 1052.22 117.38 1024.18 169.61 932.73 227.5 672.69 280.15 611.94 372.27 645.18"/><g class="cls-15"><rect class="cls-10" x="169.83" y="743.89" width="205.51" height="65.89" transform="translate(312.82 -45.45) rotate(22.14)"/><rect class="cls-16" x="134.76" y="817.05" width="169.62" height="275.41" transform="translate(375.95 -12.36) rotate(22.14)"/></g><polygon points="165.12 1005.18 141.42 1057.43 103.21 1030.15 139.15 975.28 165.12 1005.18"/><polygon points="150.04 1060.47 232.7 1082.36 250.83 1019.3 169.09 1006.71 150.04 1060.47"/><path class="cls-9" d="M236.12,418.12s-13.75-38-6.29-48.16c15.09-20.56,77.51-30.67,98.06-15.58,9.31,6.83,7,45.66,7,45.66,80.51,19.53,170.19,155.9-.68,182.1C171.56,607.08,191.82,488.78,236.12,418.12Z"/><path class="cls-17" d="M236.56,382.35l7.69,38.79s-40.31,67.23-14.24,95.6c4.23,4.6,15.33,2.21,22.52,10.88,5.91,7.12,11.27,17.13,15.62,26.72,6.85,15.09,61.94,6,63.21-9.49.77-9.3,2.27-19.41,5.13-27.92,6.83-20.39,37.39-23,44.09-35.44,16.07-29.83-63.15-73.3-63.15-73.3l-6-39.06C303.76,348.8,233.73,362.69,236.56,382.35Z"/><path d="M281.59,470.3s-2.86,10.22,2.73,17.77-.34,15.26.24,19.52,5.14,9.8,7.57.16-6.21-21.15-6.21-21.15S280.36,481.19,281.59,470.3Z"/><circle class="cls-18" cx="286.22" cy="505.5" r="4.36"/><path d="M203.2,524.65c39,3.47,46.23,38.53,93.33,34.9,49.37-3.81,78.1-71.92,125.94-87.39-54.16,36.95-75.68,75.12-91,104.86-6.23,12.1-43.59,16.12-53.94,7.28C240.72,552.88,242.32,546,203.2,524.65Z"/><polygon points="212.2 548.09 270.89 568.69 331.7 559.37 431.3 514.12 432.59 516.75 430.25 520.65 332.77 566.37 271.96 575.7 215.69 556.14 211.5 552.22 212.2 548.09"/><polygon points="333.95 496.07 312.54 482.96 316.58 458.79 338.49 472.97 333.95 496.07"/><path class="cls-10" d="M324.1,473.13a6.18,6.18,0,0,1,1.75-.15,3.29,3.29,0,0,1,1.32.36,2.63,2.63,0,0,1,.91.81,4,4,0,0,1,.55,1.19,4.65,4.65,0,0,1,.17,1.63,3.78,3.78,0,0,1-.52,1.66,5.84,5.84,0,0,1-1.42,1.57,9.42,9.42,0,0,1-2.51,1.35l-5.92,2.28-.24-.8,1.9-.73-3.73-13-1.9.73-.23-.8,5.69-2.2a10.38,10.38,0,0,1,2.51-.67,4.42,4.42,0,0,1,1.82.1,2.47,2.47,0,0,1,1.2.75,3.21,3.21,0,0,1,.66,1.24,4,4,0,0,1,.15,1.19,3.49,3.49,0,0,1-.25,1.21,4.42,4.42,0,0,1-.7,1.18,6.59,6.59,0,0,1-1.22,1.09Zm-4.22,1.26L321,474a11.13,11.13,0,0,0,1.85-.88,3.53,3.53,0,0,0,1.09-1,2.26,2.26,0,0,0,.38-1.22,4.76,4.76,0,0,0-.23-1.57,4.35,4.35,0,0,0-.47-1.14,1.57,1.57,0,0,0-.74-.66,2.26,2.26,0,0,0-1.14-.12,6.84,6.84,0,0,0-1.71.48l-1.82.7Zm2.06,7.19,2-.78a7.72,7.72,0,0,0,1.63-.81,2.84,2.84,0,0,0,.93-1,2.61,2.61,0,0,0,.31-1.23,6.21,6.21,0,0,0-.26-1.61,5,5,0,0,0-.58-1.35,1.76,1.76,0,0,0-.89-.73,2.89,2.89,0,0,0-1.41-.09,11,11,0,0,0-2.1.61l-1.49.58Z"/><path class="cls-10" d="M325.38,485.88l.66-.26a6.3,6.3,0,0,0,1,1.75,3.39,3.39,0,0,0,1.12.93,2.52,2.52,0,0,0,1.24.23,5,5,0,0,0,2.61-1,3.18,3.18,0,0,0,.76-.95,2.67,2.67,0,0,0,.27-1.11,4.1,4.1,0,0,0-.17-1.23,2.94,2.94,0,0,0-.62-1.2,2.2,2.2,0,0,0-.93-.6,4,4,0,0,0-1.24-.21c-.46,0-1,0-1.51,0s-1.07,0-1.58-.06a4.22,4.22,0,0,1-1.4-.32,3,3,0,0,1-1.14-.82,3.88,3.88,0,0,1-.78-1.55,5.23,5.23,0,0,1-.2-1.82,4.07,4.07,0,0,1,.46-1.65,4.66,4.66,0,0,1,1.15-1.39,6.47,6.47,0,0,1,1.84-1,8.85,8.85,0,0,1,.91-.31c.32-.09.64-.16,1-.22s.64-.1,1-.13.62-.05.92-.05l1.16,3.62-.66.25a5.7,5.7,0,0,0-.89-1.63,2.88,2.88,0,0,0-1-.79,2.2,2.2,0,0,0-1.1-.17,4,4,0,0,0-1.1.26,4.07,4.07,0,0,0-1.19.67,2.69,2.69,0,0,0-.73.87,2.49,2.49,0,0,0-.29,1.05,3.6,3.6,0,0,0,.15,1.19,2.56,2.56,0,0,0,.6,1.14,2.35,2.35,0,0,0,.94.59,4.75,4.75,0,0,0,1.27.21c.47,0,1,0,1.55.05s1,0,1.54.07a4.48,4.48,0,0,1,1.42.34,3.35,3.35,0,0,1,1.19.85,4.12,4.12,0,0,1,.82,1.61,4.94,4.94,0,0,1,.18,1.92,3.94,3.94,0,0,1-.56,1.68,4.86,4.86,0,0,1-1.26,1.4,7.7,7.7,0,0,1-1.91,1.05c-.32.12-.66.23-1,.33a10.28,10.28,0,0,1-1.07.24,10,10,0,0,1-1.06.15,6.84,6.84,0,0,1-1,.05Z"/><polygon points="312.45 469.1 303.67 463.73 305.33 453.81 314.32 459.63 312.45 469.1"/><polygon points="345.1 502 336.62 496.81 338.22 487.24 346.89 492.85 345.1 502"/><polygon points="343.24 483.85 339.26 481.42 340.01 476.93 344.08 479.56 343.24 483.85"/><polygon points="310.87 480.65 306.76 478.13 307.54 473.49 311.75 476.21 310.87 480.65"/><path class="cls-1" d="M504.81,545.69c0,.21,45.15,53.72,79.77,23.18,0,0-15.51,41-51.37,47.17,0,0,18.31,18.14,32.52,3,0,0-29.88,63.05-73.09,44.72,0,0-38.58-13.3-24.09-68.44C478.41,557.8,504.81,545.69,504.81,545.69Z"/><path class="cls-1" d="M254.89,718.36C218,688.68,354.05,406.78,472.15,501.81c45.65,36.74,55.2,104.61,22.56,145.17C399.52,765.26,306,759.48,254.89,718.36Z"/><path class="cls-12" d="M271.88,685.71c-31-25.84,89.35-265.54,188.69-182.8,38.39,32,45.56,90,17.14,124.11C394.85,726.51,314.86,721.51,271.88,685.71Z"/><path class="cls-13" d="M288.88,653.07C263.71,631.07,368.41,433.57,449,504c31.14,27.22,35.92,75.38,11.73,103C390.17,687.76,323.74,683.54,288.88,653.07Z"/><path class="cls-14" d="M305.87,620.42C286.57,602.26,375.59,447,437.4,505.11c23.89,22.47,26.29,60.76,6.33,82C385.5,649,332.62,645.58,305.87,620.42Z"/><path class="cls-9" d="M322.87,587.78c-13.45-14.32,59.91-127.42,103-81.58,16.64,17.72,16.65,46.15.91,60.94C380.82,610.25,341.49,607.61,322.87,587.78Z"/><path class="cls-19" d="M363.65,350.09c-10.71-38.31.48-74.93,25-81.78s61.82,14.11,65.25,67.8l15.53,12.59-13,18.77,14.77,15.1-11.76,26-32-1.5-35.93,12.15-22-14.18,4.91-25.43-14.35-1.78Z"/><path class="cls-1" d="M387.91,241.62c7-2,31.32-8.51,32.08-25.4,0,0,17,10.83,16.79,20.54,0,0,10.31-2.28,11.09-12.87,14.26,13.64,7.22,33.81-1.93,48.24.29.86.57,1.74.82,2.63.16.57.29,1.14.43,1.71,4.7.54,12.36.57,17.18-3.8,0,0,4.14,33.27-23.1,40.23a47.75,47.75,0,1,1-53.36-71.28Z"/><path class="cls-9" d="M460.39,402.2c-1.26-.33-2.48-.65-3.69-.95l7.29-5.38s-19.49-3.1-23.67,1.81c0,0,.91-7.4,5.1-10.46,0,0-21-1.63-30.39,11l-.54.13,5-15.74S391,396,389.29,419.74c-.64,1.42-7.72,4-7.72,4l-7.24,27.69,55.14,30.9,128.45,25.86L577,462.65,540.4,449.9C515.38,429.87,491.17,408.67,460.39,402.2Z"/><polygon class="cls-10" points="576 462.23 601.94 500.83 587.97 535.2 556.83 532.66 537.07 493.08 576 462.23"/><polygon class="cls-10" points="579.34 471.3 598.06 472.14 612.3 484.26 632.55 484.36 635.19 498.93 616.94 503.12 608.45 500.28 639.79 552.43 630.36 558.48 633.93 565.3 616.3 575.36 585.22 532.73 579.34 471.3"/><polygon class="cls-11" points="603.76 500.19 594.09 506.88 583.21 501.83 572.61 500.1 574.44 508.64 559.82 520.98 555.73 518.57 551.36 514.64 554 524.29 566.15 534.22 586.57 534.24 591.96 538.43 592.16 528.47 598.76 520.52 613.55 518.27 596.04 514.4 586.42 505.39 594.86 508.28 603.76 500.19"/><polygon class="cls-10" points="587.26 521.72 594.05 557.58 572.95 559.15 569.84 551.81 548.08 544.24 558.44 524.3 569.45 527.29 569.28 522.8 587.26 521.72"/><polygon class="cls-20" points="280.71 402.12 283.7 375.25 252.27 380.71 253.87 401.64 216.68 416.63 189.72 518.63 224.61 609.13 220.04 524.34 235.93 444.93 268.83 426.06 280.71 402.12"/><polygon class="cls-21" points="361.05 385.18 323.23 368.72 316.17 386.55 320.73 416.77 360.37 450.55 375.24 521.84 346.66 612.81 425.49 525.62 387.17 419.44 357.66 404.44 361.05 385.18"/><g class="cls-22"><polygon class="cls-23" points="341.49 439.74 329.42 411.39 319.08 440.42 331.15 468.76 341.49 439.74"/><polygon points="317.93 384.51 305.86 356.17 295.52 385.19 307.6 413.53 317.93 384.51"/><polygon class="cls-23" points="384.96 438.43 372.89 410.08 362.55 439.1 374.63 467.45 384.96 438.43"/><polygon points="361.4 383.19 349.33 354.85 338.99 383.87 351.07 412.22 361.4 383.19"/><polygon class="cls-24" points="429.24 437.09 417.17 408.74 406.83 437.76 418.9 466.11 429.24 437.09"/><polygon class="cls-24" points="405.69 381.86 393.61 353.51 383.27 382.54 395.35 410.88 405.69 381.86"/><polygon class="cls-24" points="346.11 565.1 334.04 536.75 323.7 565.77 335.77 594.12 346.11 565.1"/><polygon class="cls-24" points="322.55 509.87 310.48 481.52 300.14 510.55 312.21 538.89 322.55 509.87"/><polygon class="cls-24" points="389.58 563.78 377.51 535.44 367.17 564.46 379.24 592.8 389.58 563.78"/><polygon class="cls-24" points="366.02 508.56 353.95 480.21 343.61 509.23 355.68 537.58 366.02 508.56"/><polygon class="cls-24" points="433.86 562.45 421.79 534.1 411.45 563.12 423.52 591.47 433.86 562.45"/><polygon class="cls-24" points="410.3 507.22 398.23 478.87 387.89 507.89 399.96 536.24 410.3 507.22"/><polygon class="cls-24" points="350.52 684.89 338.45 656.54 328.11 685.56 340.18 713.91 350.52 684.89"/><polygon class="cls-24" points="326.96 629.66 314.89 601.31 304.55 630.33 316.62 658.68 326.96 629.66"/><polygon class="cls-24" points="393.99 683.57 381.92 655.23 371.58 684.25 383.65 712.59 393.99 683.57"/><polygon class="cls-24" points="370.43 628.34 358.36 600 348.02 629.02 360.09 657.36 370.43 628.34"/><polygon class="cls-24" points="438.27 682.24 426.2 653.89 415.86 682.91 427.93 711.26 438.27 682.24"/><polygon class="cls-24" points="414.71 627 402.64 598.66 392.3 627.68 404.37 656.03 414.71 627"/></g><polygon class="cls-25" points="361.05 385.18 323.23 368.72 316.17 386.55 320.73 416.77 360.37 450.55 375.24 521.84 346.66 612.81 425.49 525.62 387.17 419.44 357.66 404.44 361.05 385.18"/><path class="cls-7" d="M206.74,320.77s.45-42.14,60.71,1.81c0,0,67.74-40.55,79.52-13.36s-48.26,59.34-75,57.64S206.74,320.77,206.74,320.77Z"/><path class="cls-26" d="M210.75,310.84s61.23,12.64,61.23,56C272,443,160.6,446.16,160.6,380,160.6,320.15,189.44,339.41,210.75,310.84Z"/><path class="cls-27" d="M347.61,311.13S264.1,325.57,264.1,369c0,79.77,125.61,85.36,125.61,2.08C389.71,330.39,361.13,339,347.61,311.13Z"/><polygon class="cls-28" points="179.34 393.81 246.13 397.73 223.18 417.67 222.29 457.88 162.19 415.95 164.97 402.27 158.96 384.16 179.34 393.81"/><polygon class="cls-29" points="310.45 418.53 288.09 393.19 359 398.77 389.96 383.91 386.14 400.51 387.98 412.57 317.42 457 310.45 418.53"/><g class="cls-30"><polygon class="cls-24" points="327.4 430.9 311.42 415.11 305.29 436.72 321.27 452.51 327.4 430.9"/><polygon class="cls-24" points="296.22 400.14 280.24 384.36 274.11 405.97 290.09 421.76 296.22 400.14"/><polygon class="cls-24" points="370.29 419.6 354.31 403.81 348.18 425.42 364.16 441.21 370.29 419.6"/><polygon class="cls-24" points="339.12 388.85 323.13 373.06 317 394.67 332.99 410.46 339.12 388.85"/><polygon class="cls-24" points="413.99 408.09 398 392.3 391.87 413.91 407.86 429.7 413.99 408.09"/><polygon class="cls-24" points="382.81 377.33 366.82 361.55 360.69 383.16 376.68 398.95 382.81 377.33"/></g><polygon class="cls-25" points="310.45 418.53 288.09 393.19 359 398.77 389.96 383.91 386.14 400.51 387.98 412.57 317.42 457 310.45 418.53"/><polygon class="cls-31" points="161.34 361.69 169.15 373.34 185.54 362.27 260.93 377.02 360.31 364.32 373.42 373.96 389.61 348.34 389.48 360.07 392.86 368.16 388.31 385.46 389.81 396.28 329 408.28 263.2 402.55 206.11 409.76 160.96 404.27 160.59 394.83 154.16 382.17 159.52 368.62 161.34 361.69"/><polygon class="cls-31" points="169.56 402.38 207.96 466.64 182.27 396.55 169.56 402.38"/><polygon points="170.17 380.61 162.83 393.22 173.39 409.35 182.78 395.86 170.17 380.61"/><path class="cls-32" d="M205.41,461.49c3.13,8.45,5.5,16.29,2.3,19.67,3.48-.81,7.7,3.12,9.28,5.57-.69-2.51-.66-8.35,2.19-10.84C215.41,476.21,210.65,470.35,205.41,461.49Z"/><polygon class="cls-32" points="208.05 467.3 202.98 462.91 202.79 455.83 208.13 460.55 208.05 467.3"/><polygon class="cls-31" points="359.48 393.88 369.65 468.05 345.92 397.27 359.48 393.88"/><polygon points="355.32 378.43 362.65 391.04 352.1 407.17 342.71 393.68 355.32 378.43"/><path class="cls-32" d="M368.46,462.7c1.52,8.89,2.4,17-1.37,19.76,3.58-.15,7,4.49,8.1,7.19-.22-2.59.89-8.33,4.15-10.25C375.57,479,372,472.38,368.46,462.7Z"/><polygon class="cls-32" points="369.98 468.9 365.81 463.66 366.93 456.66 371.3 462.29 369.98 468.9"/><polygon class="cls-7" points="204.02 400.47 259.85 395.19 289.98 396.89 259.51 391.45 203.34 394.68 194.49 386.85 203.34 397.92 204.02 400.47"/><polygon class="cls-7" points="332.53 382.43 320.95 393.83 265.63 386.17 256.44 387.87 268.53 382.94 320.46 388.06 332.53 382.43"/><path class="cls-33" d="M240.1,236.16c-10.11,4.32-21.23-9.54-21.23-9.54,19.46,1.1,36.71-20.23,36.71-20.23,8.34-13.6,82.52-21.17,81,0s20.72,14.78,20.72,14.78c-15.52,14.09-32.77,9-32.77,9C294.46,244.34,266.1,247.71,240.1,236.16Z"/><path class="cls-34" d="M236.75,223.07c-5.8,14.05-38.82,32.86-57,21.88,4.54,21.07,34.56,54.93,56.3,30.19,6.52,17.37,39.24,15.19,67.27-4,29.26,11,68.16-11.86,79.53-43.67,0,0-68.89,23.51-59.82-14.36C330.13,183.66,252.68,184.44,236.75,223.07Z"/><path class="cls-35" d="M268.75,318.94c-11.44-17.94-71-39.05,4.18-96C347.25,267.92,276.6,298.07,268.75,318.94Z"/><path class="cls-36" d="M404.65,268.87a6,6,0,0,1-1.1.56,3.15,3.15,0,0,1-2.31-5.87c.24-.09.69-.7.87-2a12.23,12.23,0,0,0-.91-6c-1.69-4.29-4.58-6.16-5.4-5.84a3.15,3.15,0,1,1-2.31-5.87c4.87-1.92,10.71,2.12,13.58,9.39a18.5,18.5,0,0,1,1.28,9.21A8.71,8.71,0,0,1,404.65,268.87Z"/><path class="cls-36" d="M386.59,267.92a8.15,8.15,0,0,1-1.39.48,3.76,3.76,0,0,1-1.74-7.32c.3-.07.93-.71,1.36-2.17a14.63,14.63,0,0,0-.06-7.23c-1.27-5.35-4.36-8-5.38-7.8a3.76,3.76,0,1,1-1.74-7.32c6.08-1.44,12.29,4.31,14.44,13.38A22.09,22.09,0,0,1,392,261,10.42,10.42,0,0,1,386.59,267.92Z"/><path class="cls-9" d="M306.65,190.75s30.87-21.69,52.48,9.19c30.23,43.2,61.24,36.14,61.24,36.14s-82.14,58-138.73-11.84Z"/><path class="cls-11" d="M293.24,232.27a188.15,188.15,0,0,1,25-10.35c14.2-4.73,30.5,26.88,64.1,24.64C382.32,246.56,334.12,274.55,293.24,232.27Z"/><path class="cls-32" d="M385.87,268.17a4.8,4.8,0,0,1-.67.23c-3.19.75-6.63-.52-9.42-3.51a23.61,23.61,0,0,1-5-21c1.15-3.93,3.65-6.61,6.84-7.37a3.76,3.76,0,1,1,1.74,7.32c-.3.07-.94.71-1.36,2.17a14.58,14.58,0,0,0,.05,7.22,14.73,14.73,0,0,0,3.2,6.48c1,1.11,1.88,1.4,2.19,1.33a3.76,3.76,0,0,1,2.41,7.09Z"/><path class="cls-32" d="M404.08,269.16a2.65,2.65,0,0,1-.53.27c-2.56,1-5.56.36-8.23-1.79a19.75,19.75,0,0,1-6.63-16.81c.49-3.39,2.24-5.92,4.8-6.93a3.15,3.15,0,1,1,2.31,5.87c-.24.1-.69.7-.87,2a13.6,13.6,0,0,0,4.33,11c1,.8,1.73.94,2,.84a3.15,3.15,0,0,1,2.84,5.6Z"/><path class="cls-9" d="M191.14,207.61S156,194,142.42,229.17C123.48,278.37,91.68,279,91.68,279s93.71,36.54,131.8-44.9Z"/><path class="cls-11" d="M214.15,244.68a188.72,188.72,0,0,0-26.74-4c-14.92-1.17-23.12,33.43-56.28,39.36C131.13,280,184.66,295.55,214.15,244.68Z"/><path d="M329.13,186.28s14.55-48.12,41.24-51.38c28.29-3.46,27.16,62.72,27.16,62.72C460.4,141.72,427.78-8.29,357,.36,285.27,9.13,249,106.14,249,106.14S214.92,200.24,329.13,186.28Z"/><path class="cls-37" d="M313.46,117.4s21.45-43.91,58.9-37.1,34.72,48.34,34.72,48.34"/><polyline class="cls-37" points="364.87 128.64 360.44 111.11 363.68 90"/><path class="cls-9" d="M242.29,107s8.28-12.38,11.57-15.8c14.9-15.48,114.47,23.58,90,67.61,0,0-7.72,19.57-6.95,27.86S250.68,165.56,242.29,107Z"/><path d="M157.73,207.23S147.64,162.12,121,165.39c-28.3,3.45-17.75,68.2-17.75,68.2C36,193.6,50.84,37.78,121.58,29.14c71.77-8.77,108.13,79.36,108.13,79.36S271.93,193.27,157.73,207.23Z"/><path class="cls-37" d="M96.78,215.62c-20.46-74.68,13.79-99.92,57.93-83.21"/><path class="cls-37" d="M111.34,135.45S129,140.3,130,161"/><path class="cls-37" d="M94.87,173.36s3.32-1,6.51,6.51"/><path class="cls-9" d="M234.61,272.3s83.2-23,95.77-86.56c24-121.2-202.8-90.46-161.63,22C187.94,260.21,234.61,272.3,234.61,272.3Z"/><path class="cls-9" d="M235.64,109.1s-7-13.85-10.61-16.44c-16.13-11.69-110.76,54-82.54,91.58,0,0,19.6,17.79,19.59,26.18S232.67,169.09,235.64,109.1Z"/><path class="cls-10" d="M227.76,180.18S280,135,300.47,164.07c11,15.69,4.57,50.85,4.57,50.85C289,250.57,234.61,272.3,234.61,272.3s-39.8-3.2-58.6-45l3-9.35s-9.27-26.46-6.84-36.66C177.24,160.18,211.68,162.28,227.76,180.18Z"/><polygon class="cls-38" points="227.15 142.86 217.66 137.57 220.7 148.25 211.24 156.51 222.94 155.3 226.58 165.7 230.77 154.27 242.48 152.44 233.38 146.59 236.97 135.05 227.15 142.86"/><polygon class="cls-39" points="226.58 165.7 217.66 137.57 242.48 152.44 211.24 156.51 236.97 135.05 226.58 165.7"/><ellipse class="cls-40" cx="227.05" cy="149.27" rx="20.82" ry="17.8" transform="translate(-39.47 202.17) rotate(-44.55)"/><polygon class="cls-41" points="210.22 168.55 188.42 166.96 173.05 183.82 181.21 242.39 177.6 275.08 184.69 300.7 163.99 279.49 159.24 234.43 131.73 171.15 145.08 138.48 178.86 131 210.22 168.55"/><polygon class="cls-42" points="251.91 159.88 272.68 153.08 297.18 169.26 297.85 224.56 309.22 255.42 308.52 281.99 322.61 254.09 317.26 211.54 335.86 142.16 315.03 113.67 273.28 111.93 251.91 159.88"/><polygon class="cls-11" points="180.27 221.74 219.81 219.03 217.63 213.67 229.14 218.81 244.31 210.41 241.3 216.87 295.89 206.69 226.4 231.92 180.27 221.74"/><path d="M291.14,207.88c27.43-3.35,35.67-30.86,35.67-30.86s-14.2,17.91-26.9,13.33c-9.56-3.44-31,6.51-31,6.51S274.41,209.93,291.14,207.88Z"/><path d="M179.17,219.63c-24,2.93-37.08-21.29-37.08-21.29s16.07,14.2,25.78,6.89c7.31-5.51,27.1,1.51,27.1,1.51S193.8,217.84,179.17,219.63Z"/><path d="M271.6,213.49s17,9.44,11.73,32.31c0,0,12.33-15.94,2.24-34.83Z"/><path d="M199.56,220.77S185.28,234,196,255c0,0-15.81-12.51-10.56-33.27Z"/><path d="M217.42,221s-3.49-10.78-9.84-13.16c-8.25-3.1-34.45,2-34.45,2s5.84,11.25,12.15,13.34C198.13,227.5,217.42,221,217.42,221Z"/><path d="M248.61,219.16s4.6-14.83,10.21-18.65c8.71-5.93,40.05-7.11,40.05-7.11s-7.19,15-12.81,18.52C274.61,219.14,248.61,219.16,248.61,219.16Z"/><path class="cls-4" d="M216.8,220.92l-7.19-8.4-32.7,2a26.86,26.86,0,0,0,8.48,7.13C192,224.94,216.8,220.92,216.8,220.92Z"/><g class="cls-43"><ellipse class="cls-44" cx="206.61" cy="210.03" rx="3.32" ry="11.12" transform="translate(-23.95 26.62) rotate(-6.97)"/><ellipse class="cls-10" cx="206.61" cy="210.03" rx="2.53" ry="8.46" transform="translate(-23.95 26.62) rotate(-6.97)"/><path d="M207.83,212.8a10,10,0,0,1-.52,3.89,9.44,9.44,0,0,1-.6-7.64A10,10,0,0,1,207.83,212.8Z"/></g><path class="cls-5" d="M249.4,217.54l6.47-10.94L291.63,199s-3.4,8.17-7.66,11.76C278.36,215.44,249.4,217.54,249.4,217.54Z"/><g class="cls-45"><ellipse class="cls-44" cx="267.35" cy="203.05" rx="3.32" ry="11.12" transform="translate(-22.66 33.93) rotate(-6.97)"/><ellipse class="cls-10" cx="267.31" cy="202.74" rx="2.6" ry="8.71" transform="translate(-22.62 33.93) rotate(-6.97)"/><path d="M268.48,205.27a9.86,9.86,0,0,1-.51,3.88,9.34,9.34,0,0,1-.6-7.64A9.85,9.85,0,0,1,268.48,205.27Z"/></g><path class="cls-44" d="M215.65,227.74c.23,3.23,4.6,7.73,9.9,7.37s9.49-5.46,9.27-8.69S215.43,224.52,215.65,227.74Z"/><path d="M216.16,253.6c6.58,1.71,7-6.17,12.56-1.54,3.92-6.29,10.89,2.18,16.66-1.61,0,0-2.6,6.74-11.78,7.86C224.91,259.37,216.16,253.6,216.16,253.6Z"/><ellipse class="cls-7" cx="231.8" cy="251.07" rx="0.86" ry="0.71"/><path class="cls-7" d="M233.36,251.55c-.08-.57,1.46-1.19,3.18-.4s3.16.45,3.45.88-2.27.94-3.5.85S233.45,252.3,233.36,251.55Z"/><ellipse class="cls-7" cx="226.79" cy="252.04" rx="0.63" ry="0.77" transform="translate(-108.93 299.43) rotate(-56.05)"/><path class="cls-7" d="M230.94,256.08c-.52-.89,1.8-1.54,2.65-1.57s1.31.3.69,1S231.26,256.63,230.94,256.08Z"/><polyline points="289.3 179.93 282.36 172.26 245.91 198.1 244.41 195.71 281.2 163.56"/><polygon points="176.13 198.53 177.61 194.49 206.66 201.09 206.06 197.96 176.28 188.5 176.13 198.53"/><path class="cls-46" d="M362.86,0c66.66,0,95.79,143.28,34.67,197.62,0,0,1.08-62.85-25.06-62.85a16.9,16.9,0,0,0-2.1.13c-9.31,1.14-17.14,7.73-23.39,15.84a31,31,0,0,1-3.15,8s-6.34,16.08-6.95,25.27c7.48,1.55,15.34,6,22.25,15.91,16.86,24.1,34,32.56,45.8,35.32,7.58-4,14.66-10.06,15.06-19,0,0,17,10.83,16.79,20.54,0,0,10.31-2.28,11.09-12.87,14.26,13.64,7.22,33.81-1.93,48.24.29.86.57,1.74.82,2.63.16.57.29,1.14.43,1.71a37.75,37.75,0,0,0,4.22.25c4.31,0,9.41-.83,13-4.05,0,0,3.29,26.59-15.49,37.2a101.33,101.33,0,0,1,5,26.24l15.53,12.59-13,18.77,14.77,15.1-9.06,20c30,6.89,53.73,27.66,78.29,47.31L576,462.27l0,0,.06.07,1,.35-.29.69,5.44,8.09,15.87.71,14.24,12.12,20.25.1,2.64,14.57-18.25,4.19-8.49-2.84,31.34,52.15-9.43,6.05,3.57,6.82L616.3,575.36l-25.51-35,3.26,17.2L573,559.15l-3.11-7.34-21.76-7.57L555.49,530l-12.37-24.79L429.47,482.31l-3.38-1.9c.28.72.55,1.45.81,2.17,15.11,1.24,30.32,7.22,45.25,19.23a112.22,112.22,0,0,1,33.22,44.56c4,4.67,29.15,31.91,55.22,31.91,8.11,0,16.31-2.64,24-9.41,0,0-15.51,41-51.37,47.17,0,0,9.11,9,19.47,9,4.33,0,8.87-1.57,13.05-6,0,0-22.77,48.06-57.31,48.06a40.08,40.08,0,0,1-15.78-3.34,35.7,35.7,0,0,1-8.18-4.53c-37.29,43-74.11,67.33-108,78.42l.68,15,69.74,95.12,31.38,9.68,15.36,29,4.62-5.9,11.46,25.57,21,19.77-31.41,40-3-5.65L484.93,974.8l2,8-53.15,67.75-23.16-45.53,7.89-12.32-2-3L385,920.33l-66.19-52.57L270.42,951l-2.77,23.53-20.49,44.24,3.67.56-18.13,63L150,1060.47l2.6-7.32-5.19-.93-2.58-2.41-3.45,7.62-38.21-27.28,35.94-54.87,3.72,4.28,26.74-46.83,34.71-155.91-10.87-8.63L156,757.85,137.66,735c-4.53-1.41-7.87-3.55-9.74-6.48C103.46,690.31,98,633.77,139.21,575.44c-4-7.21-6.21-15.49-7.29-23.56l-36.31,4.94L84.19,580l7.48,14.22L70,601.9l-3.07,7.37L45.76,607.8l3.18-17.22L23.62,625.7l-17.69-10,3.54-6.84-9.47-6,31.07-52.31-8.48,2.89-18.26-4.1,2.56-14.59,20.25-.2,14.18-12.2,15.86-.79,6.14-9.23L100.69,502c14.93-10.46,29.61-21.31,45.23-29.56a73.71,73.71,0,0,1,1.69-8.36,40.52,40.52,0,0,0,1.94,6.5,112.43,112.43,0,0,1,34-11.09c1.27-.26,2.51-.49,3.74-.72l-6.94-5.83s3.43-.32,7.71-.32c4.1,0,9,.3,12.35,1.46l-11.7-19.58L162.18,416l2.3-11.25-3.52-.43-.37-9.44-6.43-12.66,5.36-13.55,1.82-6.93.36.54c1.46-10.27,4.32-16.92,8.08-21.62a39.53,39.53,0,0,1-2.17-3.4,13.86,13.86,0,0,0,1.43.08,15,15,0,0,0,4.8-.83,49,49,0,0,1,9.84-6.07l.11-.09c-.22-.55-.44-1.09-.65-1.65-.31-.87-.6-1.74-.86-2.62C166.44,319.64,149,307.35,152.6,288A13.51,13.51,0,0,0,163.32,293a16.15,16.15,0,0,0,5.8-1.06c-1.62-2.15-2.21-5.15-2.22-8.36a107.49,107.49,0,0,1-28.15,3.57A143.75,143.75,0,0,1,91.68,279s31.8-.62,50.74-49.82a42,42,0,0,1,8.46-14l-4.82-11.09a43.74,43.74,0,0,1-4-5.77s.84.73,2.24,1.78l-12.6-29,1.49-3.66a22.6,22.6,0,0,0-2.26-1,38.89,38.89,0,0,0-4.94-.33c-17.83,0-26.28,14-24.74,43a180,180,0,0,0,1.92,24.44C36,193.6,50.84,37.78,121.58,29.14a81.33,81.33,0,0,1,10-.62c45.7,0,75.57,39.32,89.34,62.82A8.09,8.09,0,0,1,225,92.66c3.57,2.59,10.61,16.44,10.61,16.44,0,.43-.06.86-.08,1.3,2.35-.47,4.73-.88,7.1-1.21-.13-.74-.26-1.49-.37-2.24,0,0,8.28-12.38,11.57-15.8a8.91,8.91,0,0,1,2.69-1.85C270.59,61.12,304.19,6.82,357,.36A48.1,48.1,0,0,1,362.86,0M191.7,272.45c1.27-.11,2.54-.27,3.78-.47-.42-.43-.83-.86-1.24-1.3-.84.61-1.69,1.2-2.54,1.77M387.74,421a3.87,3.87,0,0,0,1.55-1.26c0-.62.12-1.23.2-1.83l-4.93-3.18-3,1.87,5.58,2.84.57,1.56M205.05,445.85l-6.32-4.41,1.47,4a47.6,47.6,0,0,1,4.85.38m-1.25,9.44c-.22-1.8-1-5.83-3.15-8.59l3.15,8.59M362.87-4h0a51.59,51.59,0,0,0-6.3.39C332.52-.67,309.9,12,289.32,34,272.7,51.71,260.77,72,253.55,86.37a12.34,12.34,0,0,0-2.57,2c-3.44,3.58-11.14,15.06-12,16.36l-.61.91c-2.39-4.55-7.45-13.66-11-16.22a10.9,10.9,0,0,0-4-1.75c-14.6-24.34-45.19-63.15-91.82-63.15a85.84,85.84,0,0,0-10.45.65C105.79,27,91.91,35.57,81,49.85c-9.81,12.79-17.19,30-21.34,49.68-5.48,26.05-4.94,53.91,1.54,78.43,7.22,27.38,21.06,47.81,40,59.07l7.36,4.38L107.15,233a175.94,175.94,0,0,1-1.87-23.83v-.18c-.88-16.37,1.53-27.67,7.15-33.6,3.28-3.46,7.73-5.15,13.59-5.15.57,0,1.16,0,1.76.05l-.39.95.67,1.55,5.59,12.87-5.75-5.05,10.67,19.68a47.45,47.45,0,0,0,4,5.94l3.6,8.29a48.13,48.13,0,0,0-7.52,13.26c-7.32,19-17.82,33.24-30.34,41.09C99,274.69,91.65,275,91.58,275l-20.19.4,18.84,7.33a146.68,146.68,0,0,0,48.52,8.44q4.8,0,9.44-.36c-.66,8.7,2.37,16.69,9,23.8,6.18,6.61,14.47,11.2,21.06,14.09a44.84,44.84,0,0,0-6.36,4.18,10.79,10.79,0,0,1-2.88.42c-.33,0-.66,0-1-.05l-7.65-.88,3.68,6.76s.3.55.82,1.38a41.91,41.91,0,0,0-5.18,11.62l0,0-2.25,8.59-1.76,6.7-5.27,13.32-.66,1.68.82,1.6,6,11.88.33,8.57.13,3.4,2.6.32-1.42,7-.53,2.58,2.16,1.5,25.85,18,6.84,11.46c-1.41-.09-2.91-.13-4.5-.13-4.42,0-7.93.33-8.08.34l-9.51.9,7.31,6.14.41.34A116.1,116.1,0,0,0,151.94,465c-.16-.58-.3-1.17-.42-1.76l-3.37-15.79L143.76,463c0,.12-.75,2.67-1.47,6.85-12.92,7-25.32,15.77-37.34,24.25l-6,4.23-36.7,10.2-1.44.4L60,510.14l-5,7.56-13.85.69-1.37.07-1,.89L25.64,530.6l-18.79.18-3.32,0L3,534.09.39,548.68l-.67,3.76,3.73.83,18.27,4.1.58.13L-3.44,600.85l-2,3.34,3.28,2.08,6.37,4-1.85,3.58L.61,617.32,4,619.21l17.68,10,3.12,1.76,2.09-2.9,14.92-20.69L41,611.49l4.47.31,21.11,1.46,2.87.19,1.1-2.64L73,605.08,93,598l4.36-1.54-2.15-4.09-6.54-12.42,9.58-19.45,30.32-4.11a69.38,69.38,0,0,0,6,18.77c-18.84,27.34-28.8,55.68-29.59,84.26a125,125,0,0,0,19.61,71.24c2.18,3.4,5.78,6,10.73,7.75l17.56,22,.81,1,1.25.34,36.71,10.13,8.26,6.56-34,152.88-23.64,41.41,0,0-3.47-4-2.89,4.43L99.87,1028l-2.11,3.21,3.13,2.24,38.2,27.28,4,2.82,2-4.43,1.36-3,.32.06.55.1-1,2.88-1.45,4.09,4.2,1.12,82.65,21.88,3.79,1,1.08-3.76,18.14-63.05,1.25-4.37-2.9-.45,18.25-39.41.27-.58.08-.64,2.66-22.7L320,873.77l61.82,49.09,31.07,68.58.14.31.19.28.52.77-6.48,10.1-1.23,1.93,1,2,23.15,45.52L433,1058l3.87-4.93,53.16-67.76,1.2-1.53-.47-1.89-1.52-6.15,6.35-8.09.14.26,2.89,5.4,3.78-4.82,31.41-40,2.25-2.87-2.66-2.51-20.39-19.22L501.92,879l-2.7-6-4.09,5.22-.83,1-12.48-23.59-.77-1.46-1.58-.49-30.11-9.3L381.11,751.3l-.49-10.82c35.87-12.47,71-38,104.55-76a37.86,37.86,0,0,0,6,3,44.22,44.22,0,0,0,17.24,3.61c36.64,0,59.95-48.29,60.93-50.35l10.91-23L562.82,616.3c-3,3.21-6.33,4.77-10.14,4.77a21.34,21.34,0,0,1-10.37-3.24c12.41-4.2,23.76-12.82,33.22-25.28a98.81,98.81,0,0,0,12.8-22.27l3.21-8.5,2.81-.21,4.47-.33L598,557.1l15,20.62,2.11,2.89,3.11-1.77,17.63-10.07,3.35-1.91-1.79-3.42-1.87-3.57,6.35-4.08,3.27-2.09-2-3.33-26-43.21.59-.14,18.24-4.19,3.72-.86-.68-3.75-2.64-14.58-.59-3.27h-3.32l-18.79-.09-13.13-11.18-1-.88-1.37-.07-13.86-.61-3.11-4.63,1.11-2.63-3.75-1.3-1.72-2.57-1.72,1.37-32.82-11.42-5.72-4.6c-21-17-42.75-34.47-68.94-41.85l7.1-15.68,1.13-2.49-1.91-2L461.57,367,472.72,351l2.12-3.05L472,345.6l-14.19-11.51a106.18,106.18,0,0,0-4.13-22.5c17.79-12.62,14.85-38.28,14.71-39.42l-.95-7.65-5.71,5.18c-2.75,2.5-7.1,3-10.27,3l-1.09,0v0c3.78-6.24,8.11-15.1,9.34-24.42,1.44-11-1.59-20.14-9-27.24l-6.13-5.87-.63,8.46a9.66,9.66,0,0,1-4.25,7.54c-3.81-9.34-15.88-17.26-17.5-18.28l-5.83-3.72L416,216c-.25,5.7-4.16,10.73-11.61,15-10.8-2.89-26.4-11.09-42-33.35-5.9-8.42-13-14-21.13-16.6,1.38-8,5.52-18.87,6.18-20.59a34.65,34.65,0,0,0,3.19-7.93c6.51-8.22,13.3-12.82,20.2-13.66a13,13,0,0,1,1.62-.1,11.35,11.35,0,0,1,8.37,3.74c11,11.17,12.88,43.52,12.69,55l-.16,9.11,6.81-6c39.49-35.11,42-103.48,24.33-150-6.08-16-14.53-29.4-24.43-38.77C389,1.34,376.44-4,362.87-4ZM161.8,288.91l1.6-.34.09.44h-.17a10.78,10.78,0,0,1-1.52-.1Zm347,255.31a116.47,116.47,0,0,0-34.15-45.52q-2.9-2.32-5.83-4.39l71.58,14.41L551,529.94l-6.47,12.45-2.13,4.1,4.37,1.52,20.08,7,2.41,5.71,1.12,2.65,2.87-.22,12.86-1-4.17,3.69a31.63,31.63,0,0,1-21.35,8.41c-24.14,0-48.24-26.08-51.78-30.06Z"/></svg>