<svg xmlns="http://www.w3.org/2000/svg" xmlns:xlink="http://www.w3.org/1999/xlink" viewBox="0 0 491.69 1239.54"><defs><style>.cls-1{fill:#355159;}.cls-2,.cls-3{fill:none;}.cls-3{stroke-miterlimit:10;stroke-width:4px;stroke:url(#Gradiente_sem_nome_34);}.cls-4{fill:url(#Gradiente_sem_nome_45);}.cls-5{fill:#161616;}.cls-6{clip-path:url(#clip-path);}.cls-7{fill:url(#Gradiente_sem_nome_7);}.cls-8{fill:url(#Gradiente_sem_nome_7-2);}.cls-9{fill:url(#Gradiente_sem_nome_45-2);}.cls-10{fill:#aaa;}.cls-11{fill:#b7b7b7;}.cls-12{fill:#c3c3c3;}.cls-13{fill:#d0d0d0;}.cls-14{fill:#ddd;}.cls-15{fill:#848484;}.cls-16{fill:#282828;}.cls-17{fill:#4599ba;}.cls-18{fill:#54bddd;}.cls-19{fill:#fff;}.cls-20{clip-path:url(#clip-path-2);}.cls-21{fill:#0099e5;}.cls-22{clip-path:url(#clip-path-3);}.cls-23{fill:#2c2c2c;}.cls-24{fill:#2f3031;}.cls-25{fill:#333435;}.cls-26{clip-path:url(#clip-path-4);}.cls-27{fill:#385d69;}.cls-28{fill:#3a6979;}.cls-29{fill:#3d758a;}.cls-30{fill:#40819a;}.cls-31{fill:#428daa;}.cls-32{fill:#1b2326;}</style><linearGradient id="Gradiente_sem_nome_34" x1="51.39" y1="619.77" x2="491.69" y2="619.77" gradientUnits="userSpaceOnUse"><stop offset="0.38" stop-color="#ffdac9"/><stop offset="0.57" stop-color="#fed5c2"/><stop offset="0.84" stop-color="#fbc6b0"/><stop offset="1" stop-color="#f9bba2"/></linearGradient><linearGradient id="Gradiente_sem_nome_45" x1="230.67" y1="190.96" x2="334.44" y2="190.96" gradientUnits="userSpaceOnUse"><stop offset="0.35" stop-color="#427c8e"/><stop offset="0.4" stop-color="#43879e"/><stop offset="0.47" stop-color="#4491ae"/><stop offset="0.56" stop-color="#4597b7"/><stop offset="0.67" stop-color="#4599ba"/><stop offset="0.73" stop-color="#4496b6"/><stop offset="0.79" stop-color="#428daa"/><stop offset="0.84" stop-color="#3f7e96"/><stop offset="0.9" stop-color="#3a6a7a"/><stop offset="0.95" stop-color="#355159"/></linearGradient><clipPath id="clip-path"><path class="cls-1" d="M368.86,409.92c28.18-6.9,51.89-3.69,68.17,48,9.24,29.35,7.17,70.23,1.87,104.05l17,54.1-65.71,21.36L332.16,468.19l-20.1-17.7L301,409.92l12.62,17.15-4.54-35.35,25.66,16.68Z"/></clipPath><linearGradient id="Gradiente_sem_nome_7" x1="392.34" y1="509.72" x2="392.34" y2="230.88" gradientTransform="translate(-130.25 492.56) rotate(-19.99)" gradientUnits="userSpaceOnUse"><stop offset="0"/><stop offset="0.45" stop-color="#282828"/></linearGradient><linearGradient id="Gradiente_sem_nome_7-2" x1="232.3" y1="693.51" x2="232.3" y2="414.66" gradientTransform="translate(-70.36 172.23) rotate(-7.62)" xlink:href="#Gradiente_sem_nome_7"/><linearGradient id="Gradiente_sem_nome_45-2" x1="295.27" y1="617.51" x2="295.27" y2="200.45" xlink:href="#Gradiente_sem_nome_45"/><clipPath id="clip-path-2"><polygon points="298.26 137.18 341.34 154.93 343 166.01 300.56 154.84 298.26 137.18"/></clipPath><clipPath id="clip-path-3"><polygon points="426.57 175.96 389.55 169.5 382.03 177.81 416.82 187.48 426.57 175.96"/></clipPath><clipPath id="clip-path-4"><path class="cls-2" d="M120.36,394.37c29-.33,51.38,8.16,55.52,62.21,2.35,30.68-8.92,70-21.74,101.77l4.33,56.55-68.84,5.91-18.21-178L55.85,421l-1.58-42,8.41,19.56,3.58-35.46,21.22,22.06Z"/></clipPath></defs><g id="Camada_3" data-name="Camada 3"><path class="cls-3" d="M480.27,177l-14.2-31.78L489,166.62a137.15,137.15,0,0,0-19.48-53.87c.55-20.75-9.93-41.54-25-55.69-19.08-17.9-51.54-40.6-96.15-17.27-25.75-5.16-20.64-11.55-19.62-12.57a50.7,50.7,0,0,0-8.84,11.83c-10.25-12.6-26.57-24.61-52.48-32.44-93.74-28.34-131.61,81-73.49,138.38l-25.07,10.75,33.62-.7c-6.4,2.46-11.32,3.76-11.32,3.76a131.72,131.72,0,0,0,20.39,0,114.41,114.41,0,0,0,20.37,9.95l1.68,16.43-3.4,23.5h0l-73.72,20.52v.11L70.17,258.94l6,19.07-9.31,14.58-2,63.47L56,339.6l5.6,33.27-5,11.5L54.27,379l.37,9.83-1.1,2.51,1.33,3.56,1,26.12,15.57,21.79L89.29,617.46,77.66,655.32l-7.51.84-6.3,21.11,3.41,15.83,11.4,7.49.34,7.15,7.83,8.51,11.92-4.43,4.15-5.2L91.54,745.3l21.76,6.1,2.75-5.73,14.61,2.66,16.85-58L158,614.94l.43,0-.15-2,.12-.88h-.19l-4.11-53.71c12.82-31.74,24.09-71.09,21.74-101.77-1.11-14.46-3.52-25.65-7-34.29h5L187.14,407l-10.21-16.25,4.22-22.34-3.79-.78L179,361l22,24L207,402.38,166.68,536.67l1.75.9h0l10.17,5.15-3.72,15.81.32.27L149.32,688.74l7.23,134.34-4,79,27.56,124,.08,134,24.17,25.51,2.87-.44-10.13,52,155.77-21.67-2.12-15.28,38.4,9.58-4.55-52.75,2.8.74,26.75-22.8,14.33-133.26,40.58-120.39-2.62-88.65L437,707.64,454.15,685l2.41-69.66-.8.21L438.9,562c5.3-33.82,7.37-74.7-1.87-104-1.71-5.42-3.5-10.29-5.36-14.69l2.59.46L450,431l-7.2-17.78,8.08-21.26-5.29-2.1L468,303l-7.79-15.44,7.88-18.37-52.94-27-3.8-3.56L437.81,209l-5.74-5.91a110.78,110.78,0,0,0,14.07-11c-4.29,3.92-10.77,6.12-18.07,6.87l-.54-.56,3.52-5.95L426.31,186l2.24-8.72C460.18,185.58,480.27,177,480.27,177Zm-166,649.85-5.77,30.73L281.1,809l4.26-8.62,10.45-80.28,37.29,90.52Zm-77-724.17c7.7,2.33,13.09,5.39,17,8.91l-5.2-2.1-31.92,25.53-3.23,1.38C208.32,115.85,212.9,95.38,237.22,102.72Zm-14.38,54a23.88,23.88,0,0,0,4.06-1.65l4.66,1.17c-.58.41-.89.65-.89.65l1,10A45.27,45.27,0,0,1,222.84,156.76Z"/><path class="cls-4" d="M230.67,156.93s31.28-25,81.46,5.93h0l-23.31,71.69L241.5,205.61l-10.83-48.68"/><polygon class="cls-5" points="350.93 209.34 468.07 269.21 460.2 287.58 467.99 303.02 437.33 421.75 327.88 401.18 356.15 341 332.75 281.77 350.93 209.34"/><polygon class="cls-1" points="434.26 443.7 449.99 430.95 442.79 413.17 450.87 391.91 351.54 352.37 344.95 379.11 332.7 341.61 332.37 375.35 321.22 392.12 327.09 424.66 434.26 443.7"/><path class="cls-1" d="M368.86,409.92c28.18-6.9,51.89-3.69,68.17,48,9.24,29.35,7.17,70.23,1.87,104.05l17,54.1-65.71,21.36L332.16,468.19l-20.1-17.7L301,409.92l12.62,17.15-4.54-35.35,25.66,16.68Z"/><g class="cls-6"><rect x="357.27" y="583.81" width="126.13" height="31.66" transform="translate(-160.7 153.94) rotate(-17.48)"/><rect x="330.49" y="508.14" width="43.91" height="25.53" transform="translate(-140.18 129.91) rotate(-17.48)"/><rect x="320.98" y="477.94" width="43.91" height="25.53" transform="translate(-131.55 125.66) rotate(-17.48)"/></g><polygon points="456.56 615.31 454.15 684.97 428.72 718.67 379.74 693.56 389.79 633.08 456.56 615.31"/><polygon class="cls-7" points="384.67 556.15 466.44 792.69 462.28 819.44 353.08 859.15 294.97 718.09 277.99 589.75 384.67 556.15"/><polygon class="cls-8" points="314.28 578.32 285.36 800.41 272.71 826.03 157.54 841.43 149.32 688.74 175.42 557.71 314.28 578.32"/><polygon points="382.94 1137.73 389.15 1209.81 236.56 1171.7 252.64 1107.3 382.94 1137.73"/><polygon points="466.44 792.69 469.06 881.34 428.48 1001.73 414.15 1134.99 387.4 1157.79 238.28 1118.45 229.6 1081.54 291.98 945.54 314.24 826.89 346.77 798.89 466.44 792.69"/><path class="cls-9" d="M414.78,258.38c-47.1-76.44-205.14-76.48-246.75-.6-17.44,31.8,25.24,116.55,57.6,141.77L179.55,554l76,53.94,62,10,60.92-32,31.41-195.15C430.5,358.4,431.8,286,414.78,258.38Z"/><polygon class="cls-10" points="318.87 261.42 381.76 240.63 420.69 283.74 406.81 374.89 393.22 395.57 346.08 381.09 302.22 380.45 256.04 390.44 231.72 371.46 197.03 276.08 223.47 230.51 318.87 261.42"/><polygon class="cls-11" points="227.29 233.01 319.21 266.66 380.8 242.45 408.77 273.84 416.29 286.74 405.35 360.79 401.25 377.42 387.29 392.28 352.06 382.28 344.43 380.28 304.77 379.44 258.49 389.64 253.49 387.22 234.7 370.95 210.67 300.54 200.46 276.85 201.41 273.52 227.29 233.01"/><polygon class="cls-12" points="231.12 235.5 319.55 271.9 379.84 244.27 407.6 275.84 411.89 289.74 401.27 363.85 395.69 379.95 381.37 388.99 349.66 380.89 342.77 379.46 307.33 378.42 260.94 388.83 255.65 387.68 237.67 370.45 215.36 300.36 203.89 277.61 203.82 274.34 231.12 235.5"/><polygon class="cls-13" points="234.95 238 319.88 277.14 378.88 246.09 406.42 277.83 407.5 292.74 397.19 366.9 390.13 382.49 375.45 385.7 347.26 379.51 341.12 378.65 309.88 377.41 263.39 388.03 257.81 388.13 240.65 369.94 220.05 300.18 207.32 278.37 206.24 275.17 234.95 238"/><polygon class="cls-14" points="208.65 275.99 224.73 299.99 243.63 369.44 259.97 388.59 312.44 376.4 344.86 378.12 384.56 385.01 393.12 369.95 405.24 279.82 377.92 247.91 320.22 282.38 238.78 240.5 208.65 275.99"/><path class="cls-10" d="M230.22,222l90.14,31.65,57.94-29.1C337.45,194.38,246.05,190.3,230.22,222Z"/><polygon class="cls-14" points="300.62 392.5 343.85 391.48 387.83 415.54 370.07 479.99 374.83 524.59 349.64 556.59 294.83 572.59 257.39 544.67 245.81 498.38 256.37 466.04 259.09 405.1 300.62 392.5"/><polygon class="cls-15" points="295.51 481.62 315.72 490.95 338.05 485.9 316.61 486.66 295.51 481.62"/><polygon class="cls-15" points="329.79 437.12 317.13 489.63 320.98 506.36 311.08 520.85 315.72 505.63 313 488.09 329.79 437.12"/><polygon class="cls-15" points="230.83 494.12 241.05 483.06 252.96 486.12 266.92 566.12 266.41 479.99 239.34 468.76 230.83 494.12"/><polygon class="cls-15" points="328.88 570.89 358.07 495.91 380.37 494.04 382.92 511.06 377.17 502.89 366.19 505.57 328.88 570.89"/><polygon class="cls-15" points="207 314.04 223 316.08 240.19 372.93 258.58 391.31 311.43 377.61 260.45 386.04 247.51 370.72 232.03 309.27 207 314.04"/><polygon class="cls-15" points="421.29 319.14 407.38 375.99 392.5 394.38 349.73 380.68 390.98 389.1 401.45 373.78 413.99 312.33 421.29 319.14"/><polygon class="cls-15" points="334.28 376.38 337.85 360.04 329.17 291.61 341.09 359.19 334.28 376.38"/><polygon class="cls-15" points="214.66 256.33 223.34 249.95 295.34 272.16 223.85 242.29 214.66 256.33"/><polygon class="cls-15" points="330.3 271.85 380.62 249.7 389.81 257.61 381.13 244.33 330.3 271.85"/><polygon points="350.04 270.1 389.38 269.9 395.22 317.45 355.88 317.64 350.04 270.1"/><polygon points="348.33 266.62 343.71 266.64 347.18 294.95 351.81 294.93 348.33 266.62"/><polygon points="342.2 262.66 337.58 262.68 340.3 284.85 344.92 284.83 342.2 262.66"/><polygon points="397.42 319.8 402.05 319.78 398.57 291.48 393.95 291.51 397.42 319.8"/><polygon points="403.57 323.89 408.19 323.87 405.46 301.58 400.83 301.6 403.57 323.89"/><path class="cls-14" d="M377.3,293.18l-2.08-16.94h-.06l-4.3,18.24h-1l-8.36-18.14h-.06l2.07,16.91,2.26,0,.14,1.07-5.91,0-.13-1.07h2.51L360.27,276h-2.51l-.13-1.07,5.81,0,7.14,15.44h.05l3.68-15.49,5.7,0,.13,1.07h-2.51l2.12,17.28h2.52l.13,1.07-7.23,0-.13-1.07Z"/><path class="cls-14" d="M383.65,296.69l-6,0-.27-2.22a11.87,11.87,0,0,0-.49-2.62.88.88,0,0,0-.87-.53.66.66,0,0,0-.7.46,7.34,7.34,0,0,0,.09,2.32l1.44,11.73a8,8,0,0,0,.46,2.17.88.88,0,0,0,.86.51A.75.75,0,0,0,379,308a7,7,0,0,0,0-2.29l-.36-2.9h-1.21l-.45-3.71,7,0,1.61,13.11-3.75,0L381,310.4a3.64,3.64,0,0,1-1.33,1.71,3.75,3.75,0,0,1-2.12.57,5.82,5.82,0,0,1-2.92-.76,6.55,6.55,0,0,1-2.23-1.91,7.31,7.31,0,0,1-1.15-2.41,34.54,34.54,0,0,1-.63-3.78l-.89-7.26a25.13,25.13,0,0,1-.27-5.08,4.52,4.52,0,0,1,1.68-2.92,6.17,6.17,0,0,1,4.18-1.34,8.4,8.4,0,0,1,4.5,1.12,6.32,6.32,0,0,1,2.59,2.72,16.33,16.33,0,0,1,1.09,4.57Z"/><polygon class="cls-16" points="184.72 516.67 295.25 567.11 389.04 554.03 379.61 592.86 317.13 625.9 239.16 613.35 174.88 558.53 184.72 516.67"/><polygon class="cls-17" points="308.99 388.59 304.9 394.72 308.35 407.99 299.67 396.63 295.2 402.12 297.75 408.38 286.9 404.42 285.12 400.33 284.61 403.65 284.99 406.59 271.33 403.53 272.35 407.23 258.44 403.65 308.99 388.59"/><polygon class="cls-17" points="345.37 390.63 345.5 395.87 342.31 398.55 350.61 397.91 352.26 394.85 354.31 400.85 353.54 404.29 356.48 400.72 354.69 408.25 361.97 404.04 361.97 399.82 366.31 402.25 366.56 409.4 363.88 411.57 374.21 408.09 370.65 398.93 345.37 390.63"/><polygon class="cls-16" points="344.83 203.6 397.73 292.85 387.77 404.42 380.62 550.8 406.15 564.08 402.75 530.72 421.24 398.87 434.24 382.46 428.11 254.29 391.81 220.32 344.83 203.6"/><polygon class="cls-18" points="388.4 277.11 406.83 252.93 403.09 247.82 437.81 209.01 388.15 157.94 344.83 203.6 388.4 277.11"/><path class="cls-10" d="M280.24,115.14s-3.57,57.06-20.34,87c36.74,37.63,64.78,47.53,82.3,23.91,0,0,.07-29.26,27-60.25Z"/><path d="M262.29,197.48c27.63,13.39,54.42,21.54,80.29,23.94a92.81,92.81,0,0,1,6.92-24.59c-24.45-3.93-50.77-11.68-78.74-23.13A141.67,141.67,0,0,1,262.29,197.48Z"/><path d="M273.51,162.32c-.64,3-1.35,6-2.11,8.94,27.62,11.65,54.05,19.47,79.15,23.21q1.86-4.09,4.31-8.46C329.66,182.16,302.47,174.22,273.51,162.32Z"/><polygon class="cls-16" points="285.37 159.33 261.75 163.91 224.83 154.58 168.82 155.74 217.07 135.06 248.99 109.53 296.49 128.73 285.37 159.33"/><path class="cls-14" d="M274.52,153.7c-6.64-3.92-40.85-17.54-52.77-8.68s-30.63,13.78-30.63,13.78,28.42,2.56,37.95-5.1c0,0,7.66,5.78,11.07,2,0,0-.27,4.59-2.18,5.79,0,0,10.06,2.11,15.28-4.26C258.69,150.63,274.52,153.7,274.52,153.7Z"/><path d="M285.93,161.71c-34.1-10.3-5.85-46-48.71-59s-24.43,60.55,2.61,68.72C123,136.13,155.14-27.32,267.38,6.61c78.57,23.74,69,86,69,86S305.57,167.65,285.93,161.71Z"/><path d="M449.26,154.55c-26.63,23.67-30.5-25.51-63.53,4.71s39.57,51.94,60.41,32.87C356.09,274.52,231.24,141,317.75,61.83c60.56-55.41,103.52-26.54,126.72-4.77C470.28,81.27,482.63,124.89,449.26,154.55Z"/><polygon class="cls-16" points="290.81 91.45 276.51 170.47 319.84 224.21 340.07 235.89 336.63 229.47 367.46 248.44 359.69 236.07 385.6 249.83 375.67 236.63 411.87 224.92 431.05 192.49 426.31 186.04 440.28 131.52 290.81 91.45"/><polygon class="cls-19" points="318.75 215.83 320.69 211.34 349.68 230.15 379.48 228.31 376.42 231.38 409.29 222.1 428.11 192.99 423.65 187.47 436.76 135.82 376.46 125.06 298.05 90 287.34 137.42 283.66 170.9 278.06 168.23 291.21 180.83 292.14 155.02 298.06 144.31 294.55 157.59 294.01 185.5 314.72 210.13 314.01 195.09 322.17 174.21 315.73 196.35 318.75 215.83"/><polygon class="cls-14" points="353.89 189.59 336.03 192.86 342.25 187.27 329.4 183.91 338.85 178.23 320.53 166.48 334.46 170.69 325 159.65 362.49 177.92 406.87 184.4 396.3 189.38 409.09 193.25 389.39 194.57 394.13 203.62 383.8 199.83 385.31 206.96 370.55 194.49 353.89 189.59"/><polygon class="cls-14" points="330.35 99.91 364.73 148.76 386.69 163.06 391.63 189.95 423.65 187.47 441.5 122.29 330.35 99.91"/><polygon class="cls-14" points="349.92 125.44 310.44 134.97 316.38 123.06 300.73 140.42 291.37 143.99 286.56 144.5 287.34 137.42 298.05 90 341.58 101.27 349.92 125.44"/><polygon points="344.19 166.98 313.93 160.25 305.67 172.23 303.77 192.56 293.25 163.63 297.84 155.75 293.79 131.22 342.11 152.99 344.19 166.98"/><polygon points="298.26 137.18 341.34 154.93 343 166.01 300.56 154.84 298.26 137.18"/><g class="cls-20"><ellipse class="cls-21" cx="307.58" cy="144.22" rx="13.19" ry="4.8" transform="translate(80.54 396.93) rotate(-73.18)"/><ellipse class="cls-19" cx="307.58" cy="144.22" rx="9.83" ry="3.58" transform="translate(80.54 396.93) rotate(-73.18)"/></g><polygon points="378.81 178.93 407.44 188.28 406.4 204.34 398.21 222.84 417.56 203.63 417.68 191.28 429.2 174.76 389.63 168.22 378.81 178.93"/><polygon points="426.57 175.96 389.55 169.5 382.03 177.81 416.82 187.48 426.57 175.96"/><g class="cls-22"><ellipse class="cls-21" cx="392.91" cy="168.17" rx="13.19" ry="4.8" transform="translate(118.27 495.63) rotate(-73.18)"/><ellipse class="cls-19" cx="392.91" cy="168.17" rx="10.07" ry="3.66" transform="translate(118.27 495.63) rotate(-73.18)"/></g><polygon points="353.76 191.21 369.91 196.1 376.82 187.98 353.18 180.83 353.76 191.21"/><polygon points="352.5 210.79 354.77 218.71 360.61 213.24 352.5 210.79"/><polygon points="346.52 209.63 366.76 215.75 357.67 208.36 346.52 209.63"/><path d="M489,166.62c-8.09-60.64-55.39-94.09-55.39-94.09l24.52,4.9s-6.81-28.1-75.19-33.34c-64-4.9-55.56-15.53-54.21-16.87-1.62,1.53-16,15.8-15.43,38.38l-16.45,4.34L272,114.13,289.84,108l-15.3,27.3,11.1,43.07,7.5-37.08,28.22-19.68-7.27,9.31,32-6.36C421.19,202.18,480.27,177,480.27,177l-14.2-31.78Z"/><path class="cls-16" d="M480.82,154.21C472.72,93.57,427,71,427,71l31.15,6.46s-6.81-28.1-75.19-33.34c-64-4.9-55.56-15.53-54.21-16.87-1.62,1.53-16,15.8-15.43,38.38L297,73.78l-13.53,30.38,14-1-19.15,33.45,3.15,12.84,7.83-13.61,38-22.21-4.59,12.77,26.8-8.94c37.56,38.81,67.18,53,87.41,57.58s31.06-.64,31.06-.64l-15.32-44.17Z"/><path class="cls-23" d="M306.52,62.55c-2,5.36-4.77,23.06-4.77,23.06L291,100.33l12.67-.44-.64,3.92-15.73,24,0,10.83.51-1.2,7.1-8.26,35.24-17.9,0,6.18-.52,2.15,5.4.2,9.43-3.46c.31.63,6.19-.62,6.54,0,22.06,25.13,43.94,39.06,61.88,46.57a107.53,107.53,0,0,0,16.53,5.51c17.65,4.26,27.93,1.17,27.93,1.17C452.9,166.52,440.28,133,439,129c-.44-1.38,6.27,3.26,6.06,2-.44-2.78,11.27,4.74,11.36,3.08a58.18,58.18,0,0,0-.56-7c-2.71-14.18,6-17.87.11-26a113.66,113.66,0,0,0-28.11-27.18c-3.12-2.17,14.38.79,12.25.06-1.44-.49-2.84-2.66-5-5.44s1-7.42-5.51-10.66c-10.67-5.28-28.44-9.53-50.78-11.29C332.93,43,335.55,35.79,334.39,34.81c-2.42.59-7.69,4.72-10.51,11.55a28.94,28.94,0,0,0-5.14,12.73C318.21,58.61,306.88,63.43,306.52,62.55Z"/><path class="cls-24" d="M316.05,51.31C312.14,62,314.18,80.2,314.18,80.2L298.61,96.5l11.29.13,2,2.12L296.32,119l-3.2,8.81-.46.16,7.84-5.47L333,108.87l3.72,1.92-.2,2,2.9,3,8.29-3.39c.6,1.25,4,1.54,4.74,2.7a129.67,129.67,0,0,0,54.7,41.63,121.5,121.5,0,0,0,14.7,5c15.09,4,24.81,3,24.81,3-8.86-6-18.78-29-21.33-36.95-.88-2.76,2-2.49,1.6-5.09-.89-5.56,5-5.51,5.17-8.84,0-3.54.19-6,0-6.75-1.36-7.09,25,1.54,22.26-2.64-9.09-13.83-19.25-23.23-25.56-27.62s-2.39-4.87-6.65-6.33a13.19,13.19,0,0,1-6.06-3.78c-1.07-1.35,11-5.59,7.71-7.24-10.12-5.13-29-8.79-49.1-10.42-27.76-2.17-30.89-6.4-34.61-6.6s-8.06,2.24-9.47,5.66a30.8,30.8,0,0,0-6.4,4.51C323.14,51.63,316.78,53.08,316.05,51.31Z"/><path class="cls-25" d="M325.58,40.08c-5.87,16.08,1,34.72,1,34.72L306.18,92.67l14.55,1L297.5,118.46l45.7-14.3.51,7.66,7.15-3.32c10.6,22,31.85,34.79,50.46,42.13a152.9,152.9,0,0,0,34.56,9.19C418,147.7,411.12,129.5,408.69,114.35a93,93,0,0,1-.38-27.29l44.42,20.68c-12.1-32.81-55.66-42.89-55.66-42.89L418,61c-9.45-5.24-29.62-8.05-47.43-9.55s-33.25-1.69-33.25-1.69C332.57,48.57,328.2,46.41,325.58,40.08Z"/><polygon points="431.27 161.37 385.71 164.72 427.27 166.84 427.92 173.54 431.27 161.37"/><polygon points="296.68 122.08 303.96 117.93 344.29 151.1 303.82 110.44 296.68 122.08"/><polygon class="cls-16" points="244.29 204.76 269.31 253.27 255.53 378.89 254.91 541.83 203.95 555.57 166.68 536.67 207.02 402.38 201.91 386.04 158 338.04 156.44 229.21 244.29 204.76"/><polygon class="cls-18" points="267.07 273.71 279.67 235.57 271.68 230.8 283.46 190.21 230.67 156.93 233.56 185.19 230.16 208.69 249.9 220.25 261.13 246.12 267.07 273.71"/><polygon class="cls-16" points="158.09 228.75 70.17 258.94 76.14 278.01 66.83 292.59 62.99 413.63 168.45 404.16 180.96 352.85 202.12 290.96 158.09 228.75"/><polygon class="cls-1" points="173.89 422.28 187.13 406.98 176.93 390.73 181.15 368.39 76.43 346.89 74.63 374.37 55.99 339.6 61.59 372.87 53.55 391.34 65.03 422.35 173.89 422.28"/><g class="cls-26"><rect class="cls-1" x="45.43" y="326.37" width="150.15" height="318.17" transform="translate(-143.95 60.89) rotate(-17.98)"/><path class="cls-27" d="M11.06,368.91c.28-2.75,123.67-45.2,126.29-44.53s89.46,256.65,90,263S101.89,648.5,97.06,646,11.06,368.91,11.06,368.91Z"/><path class="cls-28" d="M22.11,380.5c.56-5.49,104.52-44,109.77-42.7s80.71,210.66,81.72,223.44S105.57,637.05,95.92,632,22.11,380.5,22.11,380.5Z"/><path class="cls-29" d="M33.17,392.1c.84-8.24,85.37-42.9,93.24-40.88s72,164.66,73.49,183.83S109.26,625.6,94.78,618,33.17,392.1,33.17,392.1Z"/><path class="cls-30" d="M44.23,403.7c1.12-11,66.22-41.75,76.71-39.07s63.23,118.68,65.25,144.24S113,614.15,93.65,604,44.23,403.7,44.23,403.7Z"/><path class="cls-31" d="M55.28,415.3c1.41-13.73,47.07-40.61,60.19-37.25s54.49,72.69,57,104.64-55.84,120-80,107.3S55.28,415.3,55.28,415.3Z"/><path class="cls-17" d="M66.34,426.9S62.41,560.73,91.37,576s70.43-81.15,67.41-119.49-33-61-48.78-65S68,410.42,66.34,426.9Z"/><rect x="60.37" y="558.31" width="126.13" height="31.66" transform="translate(-43.53 11.12) rotate(-4.38)"/><rect x="57.28" y="485.98" width="43.91" height="25.53" transform="translate(-37.9 7.52) rotate(-4.38)"/><rect x="54.86" y="454.42" width="43.91" height="25.53" transform="translate(-35.49 7.24) rotate(-4.38)"/></g><polygon points="158.44 612.06 147.51 690.38 118.21 701.89 73 670.49 91 611.88 158.44 612.06"/><polygon points="147.51 690.38 130.66 748.33 116.05 745.67 113.3 751.4 91.55 745.3 108.19 688.59 147.51 690.38"/><polygon points="113.56 693.27 98.75 711.82 86.83 716.25 79 707.74 78.66 700.59 67.26 693.1 63.85 677.27 70.15 656.16 83.77 654.63 110.83 679.14 113.56 693.27"/><polygon points="210.94 1166.16 197.1 1237.17 352.88 1215.5 343.73 1149.75 210.94 1166.16"/><polygon points="156.99 814.52 152.55 902.07 180.11 1026.09 180.19 1160.13 204.37 1185.63 356.82 1162.37 369.38 1126.59 321.81 984.73 312.28 864.38 280.14 807.31 156.99 814.52"/><polygon class="cls-25" points="184.9 247.4 244.88 228 255.63 243.31 258.44 266.29 247.2 349.27 179.54 332.16 199.71 275.74 184.9 247.4"/><polygon class="cls-25" points="247.72 345.41 244.65 385.01 248.06 472.38 241.33 383.74 239.8 365.36 206.6 348.25 193.58 330.12 247.72 345.41"/><polygon class="cls-25" points="70.52 341.61 71.8 296.16 78.44 281.36 115.2 289.53 150.95 316.08 161.16 338.55 176.99 344.42 159.63 341.36 145.58 320.16 112.39 299.48 79.71 298.72 70.52 341.61"/><polygon class="cls-25" points="108.82 305.87 142.01 324.5 126.44 345.95 74.09 345.19 121.07 340.33 129.5 327.06 108.82 305.87"/><polygon class="cls-25" points="240.69 221.74 186.95 238.97 179.03 247.65 155.03 271.4 82.52 258.12 151.71 233.87 163.84 229.65 223.84 211.53 240.69 221.74"/><polygon class="cls-32" points="178.34 360.27 181.46 349.14 192.95 349.4 185.54 351.82 185.92 359.1 215.54 376.46 223.58 399.95 202.9 533.36 177.75 537.7 169.71 532.08 207.02 402.38 200.95 384.99 178.34 360.27"/><polygon class="cls-25" points="428.22 375.06 420.82 385.27 400.65 389.36 416.48 379.14 418.26 370.97 401.41 362.55 407.29 291.74 395.8 272.93 409.33 256.33 422.86 264.76 428.22 375.06"/><polygon class="cls-25" points="396.73 398.97 389.53 517.26 404.83 396.49 396.73 398.97"/><polygon class="cls-32" points="247.46 540.63 206.09 549.95 168.43 537.57 206.22 553.91 254.91 541.83 247.46 540.63"/></g></svg>